<?xml version="1.0" standalone="no"?>
<!DOCTYPE svg PUBLIC "-//W3C//DTD SVG 20010904//EN"
 "http://www.w3.org/TR/2001/REC-SVG-20010904/DTD/svg10.dtd">
<svg version="1.0" xmlns="http://www.w3.org/2000/svg"
 width="500.000000pt" height="500.000000pt" viewBox="0 0 500.000000 500.000000"
 preserveAspectRatio="xMidYMid meet">
<metadata>
Created by potrace 1.14, written by Peter Selinger 2001-2017
</metadata>
<g transform="translate(0.000000,500.000000) scale(0.100000,-0.100000)"
fill="#000000" stroke="none">
<path d="M0 2500 l0 -2500 2500 0 2500 0 0 2500 0 2500 -2500 0 -2500 0 0
-2500z m2397 1111 c16 -21 33 -47 38 -56 10 -17 20 -16 167 14 176 36 259 41
303 18 39 -20 88 -73 110 -117 10 -19 44 -59 76 -88 75 -68 93 -114 87 -217
-4 -63 -12 -90 -46 -158 -81 -163 -268 -373 -376 -423 -90 -42 -161 -32 -279
40 -72 43 -89 69 -63 94 13 13 23 14 66 4 78 -18 121 -15 179 14 96 48 243
216 318 363 50 97 57 187 21 241 -48 71 -187 89 -379 50 -80 -17 -202 -53
-217 -65 -2 -1 -20 -69 -42 -151 -21 -82 -56 -204 -78 -270 l-39 -122 76 -108
c195 -278 417 -548 636 -773 213 -219 348 -321 424 -321 13 0 52 15 85 34 48
27 65 32 80 24 13 -7 16 -17 11 -35 -10 -42 -83 -148 -134 -196 -109 -102
-163 -80 -433 181 -240 233 -466 492 -701 805 -61 81 -114 144 -117 140 -4 -5
-28 -71 -54 -148 -88 -260 -256 -666 -293 -707 -25 -28 -56 -22 -105 22 -66
58 -74 84 -48 156 60 166 80 231 80 266 0 58 25 61 70 10 l37 -42 47 110 c63
148 176 440 176 456 0 8 -16 42 -35 77 -19 35 -35 69 -35 75 0 16 36 33 88 41
41 5 46 9 59 46 21 58 113 378 111 380 -5 4 -232 -91 -298 -125 -145 -73 -276
-184 -320 -270 -27 -54 -24 -124 13 -242 13 -42 21 -81 17 -88 -4 -6 -20 -10
-35 -8 -22 2 -36 18 -76 83 -59 97 -110 224 -117 286 -6 62 11 90 103 178 143
136 372 266 626 355 l124 44 15 68 c23 108 34 116 77 55z"/>
</g>
</svg>
